<?xml version="1.0" standalone="no"?>
<!DOCTYPE svg PUBLIC "-//W3C//DTD SVG 20010904//EN"
 "http://www.w3.org/TR/2001/REC-SVG-20010904/DTD/svg10.dtd">
<svg version="1.0" xmlns="http://www.w3.org/2000/svg"
 width="1024.000000pt" height="1024.000000pt" viewBox="0 0 1024.000000 1024.000000"
 preserveAspectRatio="xMidYMid meet">
<metadata>
Created by potrace 1.15, written by Peter Selinger 2001-2017
</metadata>
<g transform="translate(0.000000,1024.000000) scale(0.100000,-0.100000)"
fill="#000000" stroke="none">
<path d="M4865 9259 c-542 -56 -1021 -243 -1455 -568 -136 -102 -358 -315
-472 -452 -425 -515 -648 -1138 -648 -1809 0 -623 189 -1193 565 -1702 110
-150 387 -431 530 -540 392 -296 838 -491 1275 -558 41 -6 85 -13 98 -16 l22
-4 0 -540 0 -540 -477 -2 -478 -3 0 -340 0 -340 478 -3 477 -2 0 -510 0 -510
340 0 340 0 0 510 0 510 478 2 477 3 0 340 0 340 -477 3 -478 2 0 540 c0 314
4 540 9 540 5 0 62 9 128 20 804 138 1496 600 1937 1295 79 123 203 376 254
515 194 529 230 1077 107 1626 -123 548 -441 1090 -859 1466 -429 385 -931
623 -1498 709 -154 23 -527 33 -673 18z m575 -695 c235 -35 413 -90 625 -194
672 -326 1118 -957 1206 -1704 17 -146 7 -472 -20 -612 -129 -688 -557 -1254
-1176 -1559 -306 -151 -598 -217 -950 -217 -249 0 -410 23 -640 94 -323 99
-638 290 -880 532 -392 393 -611 895 -632 1446 -43 1140 807 2113 1947 2229
125 13 388 5 520 -15z"/>
<path d="M5010 8210 c-125 -68 -218 -220 -280 -460 -12 -47 -23 -90 -25 -96
-2 -6 -30 -15 -62 -18 -130 -15 -238 -39 -250 -54 -17 -22 -16 -87 1 -101 11
-10 40 -9 127 3 158 22 173 22 165 -7 -3 -12 -13 -137 -23 -277 -37 -554 -10
-1627 43 -1671 9 -7 39 -8 90 -4 l77 8 -6 86 c-3 47 -13 163 -21 256 -33 381
-29 1009 9 1420 9 99 19 191 21 204 l5 24 169 -8 c163 -7 169 -6 179 13 15 29
14 64 -4 89 -13 19 -28 21 -175 28 -88 4 -160 8 -160 9 0 0 7 36 15 78 22 114
81 280 136 385 71 132 66 145 -31 93z"/>
<path d="M5720 8041 c-173 -24 -329 -129 -395 -264 -43 -88 -54 -207 -31 -339
48 -279 133 -506 295 -791 44 -78 195 -307 306 -462 272 -383 396 -595 490
-837 21 -53 44 -99 52 -102 7 -3 42 -8 78 -12 80 -8 80 -10 26 136 -112 305
-200 463 -511 930 -279 419 -310 469 -403 656 -77 153 -127 284 -166 434 -11
41 -18 76 -16 78 7 7 241 -37 340 -63 426 -112 743 -285 1019 -554 154 -151
250 -278 331 -438 68 -137 90 -61 27 92 -137 331 -389 600 -735 785 -275 147
-662 275 -951 316 l-48 7 5 41 c13 93 72 184 150 229 83 49 178 68 365 74 149
5 172 8 172 22 0 40 -263 81 -400 62z"/>
<path d="M4163 7893 c3 -16 15 -72 26 -126 23 -107 28 -227 10 -227 -22 0
-248 -93 -344 -142 -140 -71 -226 -131 -317 -221 -86 -85 -140 -162 -194 -274
-57 -121 -40 -178 26 -85 88 124 286 300 462 410 119 74 348 180 348 160 0 -6
-7 -36 -16 -67 -52 -177 -112 -334 -197 -511 -30 -63 -80 -169 -112 -235 -115
-241 -138 -292 -180 -400 -89 -230 -114 -319 -144 -511 -23 -144 -27 -291 -10
-411 12 -91 19 -101 56 -87 28 9 28 10 35 132 21 388 92 628 338 1157 215 461
264 584 337 850 24 89 28 117 28 255 0 142 -2 160 -25 218 -39 99 -141 191
-127 115z"/>
</g>
</svg>
